<svg width="32" height="32" viewBox="0 0 32 32" fill="none" xmlns="http://www.w3.org/2000/svg">
<g clip-path="url(#clip0_1641_66)">
<path d="M16 32C24.8366 32 32 24.8366 32 16C32 7.16344 24.8366 0 16 0C7.16344 0 0 7.16344 0 16C0 24.8366 7.16344 32 16 32Z" fill="#878A93"/>
<path d="M8.95061 10.8308H21.3419C21.668 10.8308 21.9009 10.6256 21.9009 10.3385C21.9009 10.0513 21.668 9.84616 21.3419 9.84616H8.95061C8.62452 9.84616 8.3916 10.0103 8.3916 10.2974C8.3916 10.5846 8.62452 10.8308 8.95061 10.8308Z" fill="white"/>
<path d="M8.95061 14.1128H21.3419C21.668 14.1128 21.9009 13.9077 21.9009 13.6205C21.9009 13.3333 21.668 13.1282 21.3419 13.1282H8.95061C8.62452 13.1282 8.3916 13.3333 8.3916 13.6205C8.3916 13.8667 8.62452 14.1128 8.95061 14.1128Z" fill="white"/>
<path d="M8.95061 17.3949H21.3419C21.668 17.3949 21.9009 17.1898 21.9009 16.9026C21.9009 16.6154 21.668 16.4103 21.3419 16.4103H8.95061C8.62452 16.4103 8.3916 16.6154 8.3916 16.9026C8.3916 17.2308 8.62452 17.3949 8.95061 17.3949Z" fill="white"/>
<path d="M8.95061 20.6769H14.4475C14.7736 20.6769 15.0065 20.4718 15.0065 20.1846C15.0065 19.8974 14.7736 19.6923 14.4475 19.6923H8.95061C8.62452 19.6923 8.3916 19.8974 8.3916 20.1846C8.3916 20.5128 8.62452 20.6769 8.95061 20.6769Z" fill="white"/>
</g>
<defs>
<clipPath id="clip0_1641_66">
<rect width="32" height="32" fill="white"/>
</clipPath>
</defs>
</svg>
