<svg width="32" height="32" viewBox="0 0 32 32" fill="none" xmlns="http://www.w3.org/2000/svg">
<path d="M23.7613 24.2517C22.0355 26.0928 19.69 26.6987 16.8517 26.9856C11.1036 27.5669 6.1246 24.9995 5.52195 18.5867C5.26596 15.8603 5.87287 13.2683 7.0963 11.1445L6.38379 8.34347C6.26859 7.85707 6.71658 7.39307 7.19123 7.50827L9.65194 8.1056C11.1154 6.90453 12.8849 6.11947 14.8379 5.92107C16.5082 5.75253 18.1274 6.032 19.5993 6.67093L21.9118 5.27147C22.347 5.008 22.8984 5.3056 22.94 5.82613L23.0734 9.1264C24.8525 11.0048 26.0631 13.5691 26.3373 16.4811C26.4919 18.1259 26.3213 19.3845 25.885 20.5845C25.6813 21.1467 25.6194 21.6213 25.9885 22.0917C26.3447 22.5461 26.91 23.4283 27.5404 23.28C28.4876 23.0581 29.503 23.1168 30.1302 23.5083C31.3227 21.2693 32 18.7125 32 15.9989C31.9989 7.16373 24.8354 0 15.9995 0C7.16349 0 0 7.16373 0 16C0 24.8363 7.16349 32 15.9995 32C20.5305 32 24.621 30.1163 27.5319 27.0891C27.021 27.0123 26.4994 26.8139 26.0034 26.4832C25.0509 25.8485 24.2051 25.248 23.7613 24.2517Z" fill="#55C500"/>
<path d="M22.2841 12.5205L23.7785 12.3371L23.7571 12.0683L22.2244 12.256C22.1582 12.0619 22.0846 11.8731 22.0025 11.6885L23.691 11.1499L23.6377 10.8117L21.8415 11.4336C20.6362 8.90773 18.0314 7.37387 15.0822 7.67253C12.1383 7.97013 9.80665 10.0907 9.09094 12.8043L7.3342 12.5387L7.315 12.8843L9.04508 13.072C8.99815 13.2715 8.95975 13.3899 8.93095 13.5947L7.42167 13.7152L7.43553 13.9851L8.90642 13.8677C8.88082 14.096 8.86482 14.2432 8.86162 14.4768L7.51766 15.0261L7.58379 15.3589L8.86375 14.7605C8.86695 14.9387 8.87442 15.0347 8.89148 15.2149C9.24667 18.9973 12.4071 19.7461 16.1819 19.3643C19.9567 18.9824 22.9177 17.616 22.5614 13.8325C22.5444 13.6512 22.5188 13.5563 22.4878 13.3803L23.8745 13.6811L23.9065 13.376L22.4526 13.0997C22.4068 12.8747 22.3502 12.7381 22.2841 12.5227V12.5205Z" fill="#55C500"/>
</svg>
